<?xml version="1.0" standalone="no"?>
<!DOCTYPE svg PUBLIC "-//W3C//DTD SVG 20010904//EN"
 "http://www.w3.org/TR/2001/REC-SVG-20010904/DTD/svg10.dtd">
<svg version="1.0" xmlns="http://www.w3.org/2000/svg"
 width="378.000000pt" height="377.000000pt" viewBox="0 0 378.000000 377.000000"
 preserveAspectRatio="xMidYMid meet">

<g transform="translate(0.000000,377.000000) scale(0.100000,-0.100000)"
fill="#000000" stroke="none">
<path d="M1640 3749 c-101 -13 -204 -37 -340 -81 -687 -220 -1189 -831 -1279
-1558 -14 -109 -14 -341 0 -450 45 -369 210 -737 451 -1010 163 -185 339 -321
563 -437 315 -162 686 -235 1014 -199 179 20 267 38 418 87 219 71 443 195
619 341 370 308 605 742 665 1221 17 145 6 453 -21 582 -26 122 -91 324 -136
422 -142 312 -393 603 -684 792 -220 144 -511 253 -759 286 -115 16 -404 18
-511 4z m492 -275 c578 -87 1077 -508 1263 -1068 113 -340 112 -680 -5 -1028
-154 -461 -531 -837 -992 -992 -198 -66 -288 -80 -518 -80 -173 0 -221 4 -306
22 -516 111 -913 423 -1139 894 -117 244 -171 540 -146 800 15 158 33 246 82
393 154 464 541 846 1011 999 246 81 486 100 750 60z"/>
<path d="M1772 3388 c-7 -7 -12 -40 -12 -78 l0 -65 -46 -24 c-25 -14 -65 -46
-89 -73 -93 -103 -110 -239 -50 -380 7 -17 -9 -18 -244 -18 -227 0 -252 -2
-258 -17 -4 -9 -7 -58 -7 -107 l-1 -91 348 -3 c325 -2 347 -3 347 -20 0 -14
-14 -20 -71 -30 -106 -18 -224 -79 -293 -152 -80 -83 -101 -134 -101 -240 0
-74 4 -93 30 -145 59 -122 173 -204 350 -251 l80 -21 3 -236 c2 -202 0 -237
-12 -237 -8 0 -55 21 -105 46 -86 44 -189 132 -203 174 -4 12 -21 14 -94 12
-49 -2 -95 -8 -101 -14 -15 -12 -19 -384 -4 -406 5 -9 41 -15 105 -19 108 -7
116 -3 116 53 l0 30 68 -33 c37 -18 99 -40 137 -49 39 -9 76 -18 83 -20 9 -3
12 -38 12 -134 0 -71 -3 -130 -8 -130 -4 0 -16 6 -27 14 -11 7 -72 35 -135 61
-233 95 -380 189 -478 306 -51 59 -117 167 -109 176 2 1 19 -2 38 -8 33 -9 35
-8 77 38 60 68 61 80 10 133 -79 82 -157 267 -158 370 0 70 -6 75 -112 78 -51
1 -99 -1 -106 -6 -8 -5 -18 -41 -22 -81 -12 -88 -34 -167 -70 -246 -31 -68
-59 -102 -119 -139 -22 -14 -41 -31 -41 -36 0 -6 25 -44 56 -85 66 -87 85 -93
141 -41 l37 33 31 -72 c65 -150 204 -320 349 -427 45 -34 149 -93 245 -139
282 -137 309 -151 363 -198 l52 -46 106 0 106 0 52 45 c54 48 69 56 353 194
195 94 299 165 398 271 91 98 146 177 193 275 23 47 42 87 44 89 2 2 20 -11
41 -28 57 -47 72 -42 137 44 31 41 56 79 56 85 0 5 -18 21 -39 35 -58 36 -90
73 -121 140 -36 78 -58 158 -70 246 -4 40 -14 76 -22 81 -7 5 -55 7 -106 6
-106 -3 -112 -8 -112 -78 -1 -103 -79 -288 -158 -370 -51 -53 -50 -65 11 -134
42 -48 44 -49 77 -38 18 7 35 11 37 9 8 -9 -58 -116 -109 -176 -98 -117 -245
-211 -478 -306 -63 -26 -124 -54 -135 -61 -11 -8 -23 -14 -27 -14 -5 0 -8 56
-8 125 l0 125 28 0 c53 0 193 40 263 76 100 50 199 149 229 229 29 74 31 188
6 255 -39 107 -129 196 -261 263 -57 28 -210 77 -243 77 -22 0 -22 0 -22 205
0 189 1 205 18 205 58 0 205 -66 252 -113 18 -18 41 -51 52 -74 l19 -43 83 0
c71 0 86 3 101 20 16 18 17 26 7 53 -20 59 -24 103 -12 168 22 119 51 165 160
253 22 17 23 23 17 107 -3 49 -8 93 -12 99 -4 6 -99 10 -257 10 -234 0 -250 1
-243 18 42 98 47 190 14 276 -25 67 -92 144 -153 177 l-46 24 0 62 c0 96 3 93
-114 93 -66 0 -106 -4 -114 -12z m168 -353 c42 -22 60 -53 60 -105 0 -52 -18
-83 -60 -105 -62 -32 -136 -5 -167 60 -15 32 -16 40 -3 78 26 73 104 106 170
72z m410 -510 c0 -2 -9 -24 -19 -47 -11 -24 -22 -50 -24 -59 -5 -14 -13 -13
-64 11 -62 30 -172 60 -216 60 -20 0 -27 5 -27 20 0 19 7 20 175 20 96 0 175
-2 175 -5z m-590 -436 l0 -191 -32 6 c-75 15 -147 67 -179 128 -46 91 1 178
126 230 22 9 50 17 63 17 l22 1 0 -191z m382 -496 c139 -65 184 -140 148 -247
-23 -70 -149 -150 -250 -158 l-35 -3 -3 224 -2 224 40 -6 c22 -3 68 -18 102
-34z"/>
<path d="M58 3 c34 -2 90 -2 125 0 34 2 6 3 -63 3 -69 0 -97 -1 -62 -3z"/>
<path d="M308 3 c17 -2 47 -2 65 0 17 2 3 4 -33 4 -36 0 -50 -2 -32 -4z"/>
</g>
</svg>
