<svg version="1.0" xmlns="http://www.w3.org/2000/svg" width="200px" viewBox="0 0 2550.000000 3300.000000" preserveAspectRatio="xMidYMid meet">

<g transform="translate(0.000000,3300.000000) scale(0.100000,-0.100000)"
fill="#000000" stroke="none">
<path d="M12865 32854 c-109 -9 -356 -47 -460 -71 -60 -14 -137 -31 -171 -38
-142 -32 -470 -153 -620 -228 -464 -234 -927 -635 -1246 -1082 -324 -453 -553
-1107 -589 -1682 -28 -452 54 -959 227 -1396 172 -435 494 -869 894 -1203 181
-151 316 -238 564 -362 145 -72 166 -86 150 -95 -26 -15 -1194 -10 -1939 8
-314 8 -2053 24 -2840 27 l-690 3 -81 -27 c-213 -73 -355 -236 -392 -453 -15
-85 -15 -98 2 -180 42 -216 196 -383 416 -450 95 -29 292 -33 3475 -65 539 -5
1039 -12 1110 -15 72 -2 466 -7 877 -11 652 -6 749 -9 760 -22 10 -11 13 -59
11 -176 -1 -89 -2 -268 -2 -398 -1 -190 -4 -239 -15 -251 -11 -10 -57 -15
-178 -20 -89 -4 -188 -11 -218 -17 -30 -6 -108 -15 -174 -20 -120 -10 -270
-31 -361 -51 -47 -11 -96 -20 -255 -49 -77 -14 -217 -47 -280 -66 -25 -7 -79
-23 -120 -34 -41 -12 -88 -26 -105 -32 -16 -5 -55 -16 -85 -23 -30 -8 -86 -26
-125 -40 -38 -14 -84 -31 -102 -36 -18 -5 -35 -14 -38 -19 -4 -6 -14 -10 -23
-10 -9 -1 -35 -9 -57 -20 -22 -11 -46 -19 -53 -20 -6 0 -29 -9 -49 -20 -21
-11 -43 -20 -50 -20 -6 0 -24 -6 -40 -14 -397 -195 -533 -267 -628 -330 -44
-29 -134 -88 -200 -132 -122 -80 -223 -152 -253 -183 -9 -10 -35 -31 -57 -47
-22 -16 -42 -31 -45 -34 -3 -4 -43 -37 -90 -74 -119 -96 -437 -409 -548 -540
-140 -166 -235 -284 -281 -351 -105 -151 -198 -289 -217 -323 -37 -68 -117
-216 -151 -282 -19 -36 -38 -72 -43 -80 -14 -25 -48 -103 -55 -130 -4 -14 -14
-34 -21 -45 -8 -11 -14 -25 -14 -33 0 -7 -8 -32 -18 -55 -51 -117 -86 -214
-112 -312 -21 -80 -31 -119 -68 -250 -20 -71 -35 -151 -52 -280 -5 -38 -16
-108 -24 -155 -14 -77 -40 -454 -40 -575 -1 -115 26 -526 39 -600 8 -44 17
-111 21 -150 6 -64 34 -205 69 -345 53 -217 59 -239 112 -375 19 -49 43 -115
54 -145 29 -79 61 -153 74 -170 6 -8 33 -59 61 -113 27 -53 55 -110 63 -125
15 -29 122 -194 131 -202 3 -3 22 -30 43 -60 79 -118 98 -144 170 -223 41 -45
102 -113 136 -152 34 -38 85 -90 114 -114 28 -24 88 -76 132 -116 99 -90 126
-112 193 -158 65 -46 144 -101 200 -141 61 -44 154 -105 172 -113 8 -4 87 -48
175 -99 88 -50 196 -109 240 -129 44 -21 130 -61 190 -90 166 -79 214 -100
290 -129 39 -15 90 -36 115 -46 82 -34 259 -101 380 -145 19 -7 96 -32 170
-55 74 -23 151 -48 170 -55 84 -30 260 -85 277 -85 10 -1 36 -8 58 -16 22 -8
60 -19 85 -24 25 -6 86 -22 135 -35 50 -14 115 -32 145 -40 30 -7 75 -19 100
-25 83 -22 154 -39 255 -60 55 -12 118 -26 140 -32 22 -5 73 -16 113 -24 40
-7 77 -16 82 -19 5 -3 44 -12 87 -21 151 -28 194 -40 203 -54 6 -9 8 -299 5
-710 -6 -778 -12 -1864 -22 -3651 -6 -1088 -5 -1210 10 -1246 14 -36 15 -139
11 -994 -3 -525 -7 -960 -9 -966 -6 -17 -40 -16 -205 2 -74 8 -182 19 -240 25
-114 12 -253 32 -340 48 -30 6 -111 20 -180 32 -69 12 -145 28 -170 35 -25 8
-61 17 -80 20 -19 4 -55 13 -80 20 -25 8 -65 19 -90 25 -133 33 -159 40 -205
55 -27 10 -64 23 -82 31 -17 8 -36 14 -43 14 -7 0 -26 6 -43 14 -18 8 -48 19
-67 25 -41 12 -117 38 -145 50 -80 36 -122 55 -310 141 -95 43 -142 67 -190
95 -22 13 -49 29 -60 34 -11 6 -38 22 -60 36 -22 13 -53 31 -70 40 -48 25
-174 106 -242 157 -17 12 -41 30 -53 38 -12 8 -46 33 -75 55 -29 22 -63 47
-75 55 -22 14 -68 52 -156 129 -21 19 -84 73 -139 121 -55 48 -158 150 -230
225 -71 76 -135 143 -140 149 -6 6 -49 58 -95 116 -46 58 -93 114 -103 125
-11 11 -26 31 -35 45 -9 14 -53 81 -98 150 -110 168 -234 402 -283 533 -11 31
-30 83 -42 115 -12 31 -27 71 -34 87 -7 17 -22 75 -35 130 -13 55 -29 120 -36
145 -8 25 -18 87 -24 139 -6 51 -12 97 -15 101 -2 4 -9 70 -15 146 -24 323
-76 481 -199 604 -80 81 -173 133 -277 154 -210 44 -420 -8 -552 -137 -51 -50
-132 -171 -132 -199 0 -7 -7 -26 -15 -42 -8 -15 -19 -56 -25 -90 -5 -33 -14
-76 -20 -95 -6 -21 -10 -729 -10 -1950 0 -1691 1 -1922 15 -1965 8 -27 15 -63
15 -80 1 -17 9 -49 20 -71 11 -22 19 -47 20 -55 0 -9 24 -51 53 -95 112 -171
282 -260 493 -259 308 2 522 191 581 514 25 140 31 248 32 612 1 190 4 354 7
363 5 13 36 -12 138 -112 72 -71 171 -165 220 -208 50 -44 97 -87 106 -95 9
-9 34 -29 55 -45 22 -17 45 -35 50 -41 11 -12 225 -178 270 -210 17 -11 55
-38 85 -59 91 -64 277 -187 332 -220 60 -36 133 -77 193 -110 39 -21 90 -50
115 -65 85 -49 445 -220 463 -220 7 0 21 -6 32 -13 11 -7 54 -26 95 -42 41
-16 80 -32 85 -36 6 -4 26 -12 45 -17 19 -6 67 -22 105 -37 39 -14 86 -31 105
-37 19 -5 40 -14 45 -18 6 -5 28 -11 50 -15 22 -4 48 -12 58 -17 10 -5 40 -16
65 -23 26 -7 79 -23 117 -35 39 -12 97 -28 130 -35 33 -8 80 -19 105 -26 136
-35 311 -74 375 -84 22 -3 69 -12 105 -20 36 -8 97 -19 135 -24 39 -6 102 -15
140 -20 203 -31 383 -50 640 -70 50 -4 95 -10 101 -14 21 -13 24 -86 4 -120
-17 -30 -18 -94 -25 -1137 -3 -608 -9 -1113 -11 -1123 -11 -36 -35 -37 -310
-12 -657 61 -765 77 -1199 182 -320 77 -593 159 -920 278 -925 336 -1975 966
-2825 1695 -281 241 -583 531 -891 855 -169 179 -477 546 -660 790 -441 585
-832 1262 -1136 1965 -145 335 -357 921 -435 1200 -109 392 -173 668 -228 985
-11 61 -26 148 -34 195 -43 245 -78 538 -103 868 -17 235 -15 261 25 236 19
-12 404 -555 667 -939 90 -132 192 -280 226 -330 34 -49 136 -200 227 -335 91
-135 198 -292 237 -350 40 -58 83 -121 97 -141 106 -157 252 -310 357 -373
302 -184 670 -56 783 272 19 55 23 87 22 177 0 155 -37 273 -141 460 -84 150
-688 1042 -1168 1725 -335 477 -910 1244 -1227 1636 -36 45 -71 99 -78 120
-58 180 -184 312 -351 371 -61 21 -92 26 -174 26 -160 0 -283 -53 -397 -170
-88 -90 -25 12 -626 -1008 -263 -447 -630 -1051 -787 -1295 -23 -36 -156 -243
-295 -460 -140 -217 -310 -480 -378 -585 -176 -269 -183 -279 -249 -390 -76
-126 -85 -145 -128 -250 -60 -149 -80 -313 -51 -420 59 -224 279 -351 504
-291 157 42 367 218 587 491 149 186 536 738 840 1200 97 149 198 302 224 340
30 45 54 71 68 73 19 3 22 -3 27 -50 48 -466 59 -553 107 -828 17 -96 35 -202
40 -235 10 -61 46 -241 74 -375 140 -658 415 -1477 733 -2185 399 -886 872
-1647 1511 -2430 334 -409 836 -929 1261 -1306 563 -498 1211 -963 1880 -1349
105 -60 193 -110 195 -110 2 0 32 -16 67 -36 85 -49 424 -219 573 -287 273
-125 541 -231 825 -327 289 -97 445 -152 506 -180 86 -39 199 -111 396 -251
694 -493 1231 -1074 1517 -1638 167 -329 244 -563 276 -835 25 -210 52 -287
129 -373 93 -103 240 -146 370 -109 73 22 119 51 173 109 76 83 103 159 129
367 28 233 78 407 186 650 142 323 328 613 579 905 293 342 711 710 1123 990
174 117 254 152 571 245 322 94 751 249 1050 380 211 92 584 274 723 354 35
20 65 36 67 36 2 0 90 50 195 110 918 529 1736 1163 2470 1915 288 294 396
413 594 650 368 440 643 818 908 1245 399 643 689 1239 991 2040 212 560 408
1279 502 1840 18 106 41 241 60 345 16 90 37 251 60 465 21 193 33 271 41 279
9 9 62 -56 119 -145 216 -345 820 -1222 964 -1404 225 -282 414 -462 555 -529
326 -154 651 86 606 446 -5 41 -21 111 -35 156 -54 169 -129 296 -696 1162
-58 88 -170 262 -250 387 -79 125 -176 278 -216 340 -80 126 -501 816 -606
993 -47 80 -327 555 -456 775 -176 299 -210 348 -290 422 -79 73 -165 118
-268 142 -88 20 -128 20 -217 1 -99 -21 -182 -63 -253 -129 -72 -67 -108 -120
-158 -238 -26 -60 -56 -109 -99 -160 -34 -40 -134 -167 -221 -283 -87 -115
-191 -250 -230 -300 -108 -136 -289 -380 -506 -680 -225 -310 -256 -355 -559
-794 -206 -300 -323 -471 -682 -1003 -252 -375 -320 -533 -319 -753 0 -165 53
-290 167 -394 106 -97 224 -137 379 -128 186 10 350 112 516 322 52 65 197
276 537 779 370 545 846 1233 961 1386 81 107 86 104 84 -55 -1 -71 -10 -195
-18 -275 -9 -80 -22 -208 -31 -285 -18 -177 -72 -520 -109 -700 -8 -38 -22
-109 -30 -157 -23 -135 -116 -521 -180 -748 -37 -130 -141 -444 -208 -625 -50
-135 -67 -178 -112 -295 -20 -51 -90 -220 -126 -303 -177 -410 -377 -799 -587
-1147 -202 -334 -386 -602 -643 -935 -385 -500 -917 -1059 -1404 -1476 -66
-56 -140 -120 -165 -141 -61 -53 -356 -282 -455 -354 -115 -83 -373 -264 -420
-295 -580 -382 -1209 -711 -1740 -911 -219 -82 -599 -207 -720 -237 -22 -5
-128 -32 -235 -59 -433 -111 -629 -141 -1366 -208 -119 -11 -108 -113 -101
934 4 659 3 911 -5 930 -15 34 -12 522 2 536 6 6 52 13 103 17 131 9 313 27
447 44 63 8 147 17 185 20 39 3 99 12 135 19 76 17 163 33 277 51 45 7 86 16
92 19 5 3 44 11 87 17 44 6 102 17 129 25 94 28 209 60 375 105 103 27 206 60
280 89 30 12 69 26 85 32 17 5 44 16 60 23 17 7 56 22 88 34 31 12 83 31 115
42 64 24 644 308 652 319 3 4 20 16 39 26 42 23 48 28 141 88 41 27 100 64
130 84 119 75 137 88 205 141 39 31 77 61 85 68 8 7 31 25 51 40 139 108 251
204 363 312 206 201 288 284 337 342 25 30 94 110 153 179 59 69 120 143 135
165 15 22 45 65 66 95 116 164 208 305 251 385 26 50 58 108 70 130 37 67 140
277 162 330 12 28 33 82 47 120 15 39 31 74 36 80 5 5 9 16 9 25 0 8 6 26 13
40 13 26 42 115 77 240 11 38 29 100 40 138 11 37 20 75 20 85 0 10 5 27 11
39 6 11 17 59 24 107 8 47 19 113 24 146 6 33 15 92 22 130 6 39 15 93 19 120
5 28 9 86 9 130 1 44 8 161 16 260 11 138 12 222 5 360 -14 272 -28 440 -44
540 -34 205 -59 343 -71 385 -7 25 -20 79 -30 120 -9 41 -25 100 -35 130 -9
30 -28 89 -40 130 -61 200 -254 630 -344 767 -18 27 -35 57 -39 65 -5 15 -42
69 -155 233 -128 185 -386 472 -552 615 -45 39 -88 76 -95 83 -75 74 -471 361
-565 410 -8 4 -33 19 -55 32 -22 13 -53 31 -70 40 -16 8 -57 31 -90 50 -99 57
-378 193 -488 236 -56 22 -115 46 -132 54 -16 7 -41 16 -55 20 -14 3 -34 10
-45 15 -31 14 -224 80 -280 95 -27 7 -81 23 -120 35 -76 23 -145 43 -215 61
-25 6 -74 19 -110 29 -133 35 -156 41 -210 54 -30 7 -73 18 -95 24 -22 5 -85
20 -140 32 -55 12 -125 28 -155 35 -53 13 -133 31 -347 75 -54 12 -127 27
-163 35 -36 7 -117 23 -180 35 -63 11 -144 27 -180 35 -36 8 -87 17 -115 21
-27 3 -75 12 -105 19 -30 7 -79 16 -109 20 -57 6 -160 31 -169 40 -9 9 -1
2195 10 2795 6 311 11 671 10 800 0 591 -12 1552 -22 1815 -5 160 -11 477 -12
705 l-3 415 27 55 c19 41 29 84 38 170 15 145 17 157 32 163 20 7 188 -9 269
-26 70 -15 103 -21 280 -52 42 -7 86 -18 97 -24 11 -6 29 -11 40 -11 10 0 48
-9 83 -19 35 -10 100 -29 144 -41 44 -12 96 -27 115 -34 19 -8 62 -23 95 -36
33 -12 76 -27 95 -35 19 -7 62 -22 95 -35 33 -12 92 -37 130 -55 137 -65 321
-157 356 -178 20 -12 63 -37 95 -56 152 -89 436 -295 564 -409 250 -224 537
-535 656 -711 33 -48 121 -184 139 -212 28 -47 176 -352 195 -401 20 -56 49
-136 75 -208 7 -19 18 -60 24 -90 33 -158 41 -192 46 -200 3 -5 12 -73 20
-152 8 -79 20 -188 25 -243 14 -132 38 -244 67 -305 44 -96 62 -125 103 -168
84 -88 117 -110 225 -154 105 -42 361 -60 465 -33 285 74 450 349 399 665 -21
128 -24 308 -23 1190 1 584 5 918 12 960 6 36 16 101 22 145 6 44 17 116 25
160 8 44 17 98 20 120 3 22 12 69 20 105 7 36 21 103 31 150 15 74 41 188 89
380 8 30 23 87 34 125 12 39 27 93 35 120 8 28 19 61 24 75 6 14 22 61 36 105
14 44 37 112 52 150 14 39 32 90 40 115 8 24 19 49 24 54 6 6 10 16 10 24 0 8
9 36 21 61 12 25 27 60 35 76 38 86 149 309 184 370 22 39 46 84 55 100 20 40
144 229 168 255 7 8 44 55 82 105 38 49 114 133 168 187 100 99 129 118 272
172 146 55 258 143 339 264 190 288 86 681 -220 831 -113 56 -211 63 -400 30
-115 -20 -132 -20 -738 -9 -342 5 -1093 14 -1671 20 -577 5 -1228 12 -1445 15
-217 4 -692 10 -1055 15 -363 5 -668 12 -678 16 -16 6 -14 9 15 26 17 11 73
38 123 60 378 166 681 377 1009 704 382 382 631 784 800 1295 65 198 134 496
150 649 37 354 24 660 -45 1005 -123 622 -383 1108 -834 1561 -255 256 -453
403 -729 544 -322 163 -635 261 -1031 320 -136 21 -457 34 -580 24z m449
-1175 c218 -34 417 -95 606 -185 179 -86 294 -171 467 -346 279 -283 422 -542
508 -924 27 -119 54 -354 55 -469 0 -103 -26 -305 -55 -427 -57 -245 -157
-492 -271 -674 -144 -230 -394 -490 -629 -655 -236 -165 -514 -277 -850 -340
-175 -33 -480 -33 -645 0 -269 54 -526 152 -705 270 -263 173 -539 483 -668
751 -180 374 -243 878 -157 1270 59 268 177 564 303 757 155 238 438 516 700
687 184 120 514 236 792 280 55 8 111 17 125 19 80 13 304 5 424 -14z m2801
-6194 c638 -8 1386 -17 1663 -21 396 -5 505 -9 508 -19 3 -7 -31 -75 -76 -152
-89 -152 -310 -593 -310 -620 0 -3 -8 -24 -19 -47 -70 -154 -179 -455 -251
-696 -12 -41 -28 -93 -36 -115 -7 -22 -17 -58 -22 -80 -6 -22 -22 -85 -37
-140 -15 -55 -33 -147 -40 -205 -8 -58 -21 -157 -29 -220 -13 -106 -23 -142
-61 -225 -7 -16 -17 -42 -20 -57 -14 -56 -56 -29 -231 147 -60 61 -126 125
-148 143 -96 81 -366 291 -408 318 -26 16 -78 50 -115 75 -183 124 -336 221
-418 264 -49 26 -121 65 -160 86 -38 21 -79 43 -90 48 -11 5 -47 24 -80 43
-33 18 -85 44 -115 56 -59 25 -89 38 -161 71 -25 12 -51 21 -57 21 -6 0 -23 7
-39 15 -30 15 -60 28 -163 70 -36 14 -79 33 -97 41 -17 8 -37 14 -45 14 -12 0
-95 26 -178 56 -70 25 -167 54 -179 54 -7 0 -27 7 -44 15 -18 8 -50 19 -72 24
-22 6 -58 15 -80 20 -22 6 -85 20 -140 31 -55 12 -120 26 -145 32 -25 6 -76
16 -115 23 -38 8 -81 18 -95 23 -14 5 -61 12 -105 16 -44 4 -100 11 -125 17
-25 5 -91 13 -148 18 -64 6 -113 16 -128 26 l-24 15 0 405 c0 369 1 405 17
421 17 16 63 17 738 11 396 -4 1242 -14 1880 -22z m-3798 -2053 c7 -5 12 -31
13 -62 3 -595 -12 -2820 -19 -2895 -6 -56 -13 -572 -16 -1175 -7 -1557 -16
-2594 -22 -2604 -7 -11 -105 -1 -193 19 -36 8 -110 23 -165 35 -208 43 -415
88 -485 106 -144 36 -188 47 -228 55 -24 5 -64 15 -90 23 -26 8 -81 24 -122
36 -41 11 -88 25 -105 31 -16 6 -46 15 -66 20 -19 4 -49 15 -65 24 -16 8 -38
15 -49 15 -11 0 -29 6 -40 14 -11 7 -35 17 -53 21 -18 4 -45 13 -60 21 -15 8
-32 14 -38 14 -11 0 -52 17 -154 62 -64 29 -111 49 -145 64 -124 52 -358 176
-493 259 -62 39 -120 75 -130 80 -149 87 -486 379 -600 520 -31 39 -59 72 -62
75 -18 16 -130 167 -160 215 -19 32 -54 87 -77 124 -24 36 -56 93 -72 126 -86
178 -141 295 -141 303 0 5 -14 51 -31 103 -47 145 -79 261 -79 292 0 16 -9 67
-19 115 -11 50 -25 171 -32 284 -13 228 -1 503 32 677 10 56 19 114 19 128 0
14 9 57 20 96 71 245 89 307 104 342 7 17 23 55 36 85 53 131 88 206 130 280
21 36 54 97 75 135 21 39 50 86 64 105 15 19 40 55 56 80 17 25 32 47 35 50 3
3 21 28 40 55 50 72 253 309 330 385 158 155 271 260 297 277 15 10 35 25 43
33 9 8 51 42 95 75 44 33 89 68 100 78 11 10 34 26 50 34 17 9 41 24 55 34 14
9 59 38 100 64 41 26 87 56 102 66 15 10 64 37 110 60 46 22 90 45 98 50 8 5
24 13 35 18 11 5 68 32 127 60 59 28 111 51 115 51 4 0 42 14 83 31 41 17 93
37 115 44 22 7 65 23 95 35 30 12 73 26 95 31 22 5 63 15 90 23 51 15 145 41
245 69 30 8 78 18 105 22 28 3 79 12 115 20 243 54 752 110 787 87z m1203
-8162 c19 -6 64 -15 100 -20 36 -6 94 -17 130 -24 92 -20 163 -34 255 -50 44
-8 93 -19 108 -25 16 -6 40 -11 54 -11 25 0 159 -28 258 -55 28 -7 70 -16 95
-20 25 -4 68 -13 95 -20 28 -8 73 -19 100 -25 105 -24 270 -65 340 -85 274
-77 290 -81 430 -127 66 -21 132 -46 147 -54 14 -7 31 -14 38 -14 7 0 28 -7
48 -16 21 -9 57 -26 82 -37 91 -40 307 -148 375 -187 39 -22 79 -44 90 -50 11
-6 47 -28 80 -50 33 -22 73 -47 88 -55 38 -21 204 -145 302 -225 89 -72 302
-282 381 -375 63 -75 181 -234 220 -298 16 -26 46 -76 67 -110 143 -234 283
-596 337 -872 6 -33 18 -91 26 -130 25 -120 39 -312 39 -520 0 -212 -18 -498
-35 -555 -6 -19 -15 -70 -21 -112 -9 -69 -34 -185 -59 -263 -5 -16 -19 -64
-31 -105 -27 -95 -59 -188 -74 -220 -7 -14 -23 -50 -35 -80 -45 -111 -89 -206
-126 -270 -86 -150 -114 -200 -114 -204 0 -7 -51 -80 -210 -301 -159 -219
-501 -562 -785 -785 -113 -88 -207 -160 -210 -160 -3 0 -27 -15 -53 -32 -26
-18 -57 -38 -67 -45 -21 -13 -134 -81 -165 -98 -10 -6 -24 -16 -31 -22 -27
-21 -445 -225 -489 -238 -14 -4 -29 -11 -35 -15 -5 -4 -26 -13 -45 -18 -19 -6
-66 -22 -105 -37 -38 -14 -86 -31 -105 -37 -19 -5 -39 -13 -45 -17 -10 -8
-125 -44 -175 -56 -14 -3 -49 -12 -77 -20 -29 -8 -77 -22 -105 -30 -29 -8 -64
-17 -78 -20 -14 -3 -47 -12 -75 -20 -27 -8 -106 -24 -175 -35 -69 -12 -154
-28 -190 -35 -99 -21 -282 -46 -410 -55 -63 -5 -155 -15 -204 -22 -84 -12 -89
-11 -103 7 -22 30 -13 1556 9 1600 14 26 16 242 22 1750 3 946 8 1918 11 2160
3 242 8 755 11 1140 3 385 8 703 10 707 7 11 43 10 84 -2z"/>
</g>
</svg>
