<?xml version="1.0" standalone="no"?>
<!DOCTYPE svg PUBLIC "-//W3C//DTD SVG 20010904//EN"
 "http://www.w3.org/TR/2001/REC-SVG-20010904/DTD/svg10.dtd">
<svg version="1.0" xmlns="http://www.w3.org/2000/svg"
 width="828.000000pt" height="828.000000pt" viewBox="0 0 828.000000 828.000000"
 preserveAspectRatio="xMidYMid meet">
<metadata>
Created by potrace 1.14, written by Peter Selinger 2001-2017
</metadata>
<g transform="translate(0.000000,828.000000) scale(0.100000,-0.100000)"
fill="#000000" stroke="none">
<path d="M4054 8155 c-175 -39 -326 -132 -455 -283 -58 -68 -107 -158 -146
-267 -26 -75 -28 -91 -28 -240 0 -154 1 -163 31 -248 18 -48 47 -113 65 -144
49 -83 180 -212 267 -262 39 -23 72 -44 72 -46 0 -2 -305 -1 -677 2 -677 5
-678 5 -711 -16 -83 -53 -80 -180 6 -233 36 -22 36 -22 786 -31 413 -4 757
-10 764 -12 8 -3 12 -33 12 -104 l0 -99 -77 -7 c-370 -33 -673 -170 -899 -406
-210 -220 -304 -447 -305 -739 -1 -196 28 -327 102 -470 146 -283 455 -465
1008 -596 l159 -38 -1 -928 -2 -928 -30 0 c-51 0 -226 29 -303 50 -323 89
-587 291 -711 545 -52 105 -65 151 -81 278 -5 43 -18 92 -27 108 -19 32 -85
69 -124 69 -47 -1 -104 -35 -125 -76 -18 -37 -19 -69 -22 -504 -2 -256 0 -489
3 -519 6 -43 14 -61 44 -94 32 -34 45 -40 87 -44 60 -5 110 19 139 68 17 28
21 56 24 162 1 70 6 127 10 127 4 0 18 -12 32 -26 35 -38 154 -133 226 -182
196 -133 496 -236 749 -258 43 -4 86 -10 94 -14 13 -7 14 -45 8 -295 -3 -157
-8 -289 -11 -292 -3 -2 -68 3 -144 11 -379 44 -741 203 -1082 476 -109 87
-304 281 -387 385 -225 283 -407 673 -478 1027 -26 128 -51 337 -44 359 5 16
42 -33 228 -306 191 -280 215 -305 298 -305 45 0 84 26 108 73 19 35 14 99
-12 150 -30 59 -315 470 -448 645 -72 95 -147 199 -167 230 -47 74 -80 94
-142 89 -40 -3 -55 -11 -81 -38 -18 -19 -99 -144 -179 -279 -80 -135 -209
-343 -286 -463 -159 -248 -179 -298 -144 -359 23 -40 73 -60 117 -47 61 18
156 129 321 377 49 73 91 132 95 132 3 0 12 -46 18 -103 43 -362 171 -737 366
-1066 201 -339 549 -693 901 -916 132 -83 362 -195 505 -244 138 -48 212 -92
336 -199 189 -163 294 -337 329 -546 9 -51 44 -86 89 -86 59 0 82 31 106 138
43 202 157 365 379 544 93 74 114 85 291 144 253 84 553 251 790 440 109 87
337 315 424 424 170 214 332 501 429 765 70 188 127 434 153 647 3 32 9 58 13
58 4 0 61 -80 127 -177 209 -312 299 -382 386 -305 27 25 31 36 31 75 0 59
-16 90 -185 352 -74 116 -198 316 -276 445 -77 129 -151 245 -164 256 -70 64
-167 43 -213 -47 -9 -17 -60 -87 -114 -157 -211 -275 -495 -690 -518 -758 -22
-64 -12 -119 26 -158 27 -27 38 -31 84 -31 43 0 61 6 89 27 19 14 106 131 195
260 213 311 226 328 235 328 10 0 10 -11 -3 -128 -25 -231 -89 -479 -183 -707
-273 -659 -910 -1219 -1571 -1381 -85 -21 -344 -59 -351 -51 -1 1 -4 132 -6
290 -2 235 -1 289 11 296 7 5 50 12 95 16 226 19 471 93 651 195 231 133 436
354 535 578 153 346 119 793 -84 1077 -89 125 -249 257 -401 333 -130 64 -312
117 -612 177 -96 19 -176 35 -177 35 -6 0 3 1614 9 1653 l7 48 47 -7 c165 -24
363 -101 485 -188 76 -55 191 -172 245 -250 57 -82 98 -195 112 -307 18 -151
53 -195 163 -205 40 -4 58 -1 83 15 66 42 66 39 64 375 -2 291 -1 309 24 432
66 329 188 565 330 641 33 17 70 46 82 65 42 60 25 152 -34 193 -17 12 -131
15 -674 20 -360 3 -687 8 -728 11 l-74 6 60 32 c91 49 153 98 236 185 156 167
237 413 207 632 -25 179 -89 315 -207 437 -106 108 -219 171 -373 207 -79 18
-242 18 -326 0z m274 -280 c167 -40 293 -163 337 -330 33 -130 8 -292 -65
-405 -40 -63 -138 -154 -199 -184 -205 -104 -442 -67 -582 92 -161 183 -157
469 9 653 142 158 314 218 500 174z m1168 -1518 c2 -2 -20 -50 -49 -108 -63
-124 -120 -290 -141 -413 -9 -49 -20 -94 -25 -99 -6 -6 -31 9 -68 42 -81 74
-248 184 -356 235 -141 67 -277 108 -487 144 l-45 8 -3 89 c-2 48 0 95 3 103
5 13 77 14 587 9 319 -3 582 -8 584 -10z m-1459 -502 c3 -9 2 -383 -2 -831
l-7 -815 -32 6 c-262 53 -368 86 -511 157 -171 85 -281 186 -353 327 -57 113
-76 206 -69 350 7 165 47 275 149 413 153 208 405 351 683 388 50 6 97 13 105
15 8 1 19 3 23 4 4 0 10 -6 14 -14z m470 -2026 c277 -58 419 -111 560 -207 92
-63 186 -171 237 -273 63 -126 80 -209 74 -378 -5 -117 -10 -148 -35 -223
-128 -372 -507 -639 -969 -683 l-71 -7 -6 43 c-3 24 -2 229 3 454 5 226 9 611
10 858 l0 447 25 0 c14 0 91 -14 172 -31z"/>
</g>
</svg>
